<svg xmlns="http://www.w3.org/2000/svg" version="1.0" width="512.000000pt" height="512.000000pt" viewBox="0 0 512.000000 512.000000" preserveAspectRatio="xMidYMid meet">

<g transform="translate(0.000000,512.000000) scale(0.100000,-0.100000)" fill="#fff8dc" stroke="none">
<path d="M2098 5099 c-50 -26 -67 -55 -90 -151 -18 -74 -18 -82 -3 -104 20 -31 58 -46 88 -35 33 13 43 29 58 94 7 32 15 60 19 62 4 2 51 -3 106 -12 131 -21 443 -21 574 0 52 9 98 13 102 9 7 -8 178 -772 178 -796 0 -19 -89 -47 -243 -78 -96 -19 -143 -23 -327 -23 -184 0 -231 4 -327 23 -164 33 -243 59 -243 80 0 9 18 95 39 191 26 116 37 181 31 195 -27 73 -128 63 -145 -14 -5 -24 -12 -29 -53 -35 -76 -10 -261 -62 -337 -93 -177 -73 -259 -157 -258 -264 1 -118 120 -216 351 -292 l83 -28 -40 -29 c-129 -93 -115 -312 26 -440 22 -20 49 -41 59 -47 10 -6 17 -13 14 -15 -3 -3 -128 -44 -279 -91 -182 -57 -282 -93 -298 -108 -55 -51 -51 -142 8 -192 16 -14 115 -86 219 -161 105 -75 190 -140 190 -144 0 -4 -15 -12 -32 -19 -18 -7 -63 -34 -100 -62 -87 -64 -160 -166 -193 -272 -23 -74 -25 -93 -25 -292 l0 -213 -60 -6 c-108 -12 -175 -64 -199 -154 -10 -37 -1 -106 74 -580 47 -296 88 -550 91 -565 5 -25 3 -28 -21 -28 -43 0 -93 -27 -115 -62 -15 -25 -20 -50 -20 -110 0 -42 4 -88 9 -101 16 -40 73 -99 116 -118 38 -18 107 -19 1433 -19 1526 0 1430 -4 1495 58 50 47 67 93 67 179 0 61 -5 85 -20 111 -22 35 -72 62 -115 62 -24 0 -26 3 -21 27 3 16 44 270 91 566 75 474 84 543 74 580 -24 90 -91 142 -199 154 l-60 6 0 213 c0 199 -2 218 -25 292 -33 106 -106 208 -193 272 -37 28 -82 55 -99 62 -18 7 -33 15 -33 19 0 5 85 69 189 143 104 75 203 147 219 161 62 52 64 146 4 197 -15 13 -72 36 -126 52 -90 27 -101 28 -125 15 -14 -8 -30 -27 -36 -42 -16 -47 10 -78 85 -105 35 -13 66 -24 67 -26 2 -2 -81 -63 -183 -136 -245 -174 -344 -259 -463 -394 -54 -61 -132 -143 -174 -182 -76 -71 -213 -172 -221 -163 -3 3 49 103 115 224 67 121 123 233 126 250 2 16 -3 50 -11 74 -9 24 -16 63 -16 87 0 42 4 48 75 115 83 79 144 163 171 236 9 27 20 52 24 56 4 4 41 -2 83 -14 l77 -23 27 21 c57 42 35 122 -38 138 -26 6 -42 25 -20 25 16 0 103 83 127 122 34 53 58 152 51 209 -9 76 -53 145 -110 176 -15 8 -2 16 74 42 235 82 341 171 342 289 1 142 -145 247 -461 328 -73 19 -144 34 -157 34 -28 0 -21 -23 -86 273 -29 130 -60 251 -70 267 -10 16 -38 39 -61 51 l-43 22 -135 -19 c-170 -24 -402 -24 -553 -1 -133 21 -143 21 -189 -4z m-228 -757 c0 -4 -9 -50 -20 -101 -36 -163 -8 -204 174 -256 206 -59 373 -79 600 -72 182 6 328 28 473 71 183 55 209 94 172 261 -11 53 -18 99 -15 103 3 3 32 -1 63 -8 163 -35 334 -108 373 -157 43 -55 -28 -108 -255 -192 -236 -86 -353 -148 -527 -277 -109 -81 -175 -110 -278 -122 -146 -17 -277 16 -387 100 -188 142 -317 211 -558 299 -227 84 -298 137 -255 192 37 47 174 106 360 156 45 12 80 13 80 3z m-36 -684 c3 -18 8 -77 12 -131 l6 -99 -30 16 c-59 31 -102 105 -102 179 0 38 32 67 75 67 31 0 35 -3 39 -32z m259 -43 c29 -21 74 -54 101 -72 l48 -33 -121 0 c-138 0 -127 -9 -133 112 l-4 67 29 -17 c15 -9 52 -35 80 -57z m1040 8 c-7 -122 4 -113 -134 -113 l-120 0 63 45 c63 45 192 135 193 135 1 0 -1 -30 -2 -67z m247 47 c49 -49 1 -183 -82 -226 l-30 -16 6 99 c11 162 11 163 51 163 22 0 43 -8 55 -20z m-778 -257 c14 -13 18 -31 18 -87 0 -82 -17 -116 -56 -116 -15 0 -38 -13 -56 -30 -24 -25 -29 -36 -24 -58 26 -108 207 -66 267 63 12 26 19 63 19 108 l0 67 170 0 170 0 0 -42 c-1 -138 -80 -276 -218 -381 -172 -131 -318 -168 -457 -116 -142 52 -305 181 -368 291 -32 55 -57 146 -57 205 l0 42 219 3 219 3 44 32 c48 36 82 41 110 16z m-683 -336 c37 -80 56 -104 137 -185 90 -89 94 -95 94 -136 0 -24 -7 -63 -15 -86 -8 -23 -15 -53 -15 -67 0 -13 56 -126 125 -251 68 -124 122 -228 119 -231 -8 -9 -145 92 -221 163 -42 39 -120 121 -174 182 -119 135 -218 220 -463 394 -102 73 -185 135 -182 137 5 5 527 171 541 172 6 0 30 -41 54 -92z m491 -404 c108 -36 198 -34 315 5 60 20 92 26 97 19 3 -6 9 -30 13 -53 6 -41 0 -54 -131 -293 -76 -138 -141 -251 -144 -251 -3 0 -68 113 -144 251 -125 229 -137 255 -131 288 11 64 16 73 33 65 10 -3 51 -18 92 -31z m-601 -255 c32 -35 84 -92 115 -128 120 -136 303 -278 460 -357 39 -20 134 -62 211 -94 76 -32 148 -68 159 -79 l20 -20 -687 0 -688 0 3 223 c3 217 4 223 30 279 31 68 105 149 166 185 41 24 112 51 140 52 7 1 39 -27 71 -61z m1687 22 c75 -37 155 -119 192 -197 26 -57 27 -63 30 -280 l3 -223 -399 0 -399 0 -12 41 c-15 50 -74 117 -124 139 l-37 17 84 51 c155 95 266 193 441 391 87 99 91 101 125 96 19 -3 62 -19 96 -35z m457 -859 c13 -5 27 -16 30 -24 8 -22 -168 -1114 -183 -1132 -11 -13 -119 -15 -940 -15 -923 0 -927 0 -954 -21 -33 -26 -35 -73 -4 -106 l21 -23 1024 0 1023 0 0 -39 c0 -77 117 -71 -1410 -71 -1527 0 -1410 -6 -1410 71 l0 39 234 0 c129 0 242 3 251 6 8 4 23 20 31 36 12 24 13 36 4 58 -18 42 -48 50 -199 50 -112 0 -141 3 -151 15 -15 18 -191 1109 -183 1132 3 8 15 19 27 23 29 12 2758 13 2789 1z" fill="#fff8dc"/>
<path d="M2477 1270 c-180 -46 -278 -234 -201 -388 84 -169 335 -217 492 -93 163 130 124 375 -75 463 -51 22 -161 32 -216 18z m159 -159 c77 -35 104 -103 69 -171 -34 -65 -155 -91 -235 -50 -68 35 -92 120 -48 175 27 34 92 65 138 65 19 0 53 -9 76 -19z" fill="#fff8dc"/>
</g>
</svg>